<?xml version="1.0" standalone="no"?>
<!DOCTYPE svg PUBLIC "-//W3C//DTD SVG 20010904//EN"
 "http://www.w3.org/TR/2001/REC-SVG-20010904/DTD/svg10.dtd">
<svg version="1.0" xmlns="http://www.w3.org/2000/svg"
 width="1000.000000pt" height="1000.000000pt" viewBox="0 0 1000.000000 1000.000000"
 preserveAspectRatio="xMidYMid meet">
<metadata>
Created by potrace 1.11, written by Peter Selinger 2001-2013
</metadata>
<g transform="translate(0.000000,1000.000000) scale(0.100000,-0.100000)"
fill="#000000" stroke="none">
<path d="M4895 8969 c-148 -23 -276 -89 -386 -198 -137 -137 -201 -291 -202
-486 0 -127 17 -204 69 -311 170 -346 591 -483 944 -307 55 28 98 60 161 123
140 138 197 264 206 456 9 177 -29 305 -133 451 -84 117 -236 221 -379 257
-79 20 -205 27 -280 15z"/>
<path d="M3126 7939 c-83 -20 -170 -71 -242 -143 -107 -108 -154 -220 -154
-371 0 -151 47 -263 154 -371 109 -109 216 -153 371 -154 154 0 258 43 371
155 109 108 153 214 154 370 0 154 -43 258 -155 371 -73 74 -157 123 -245 143
-54 13 -200 12 -254 0z"/>
<path d="M6600 7927 c-125 -43 -212 -107 -279 -208 -61 -92 -86 -175 -86 -294
0 -78 5 -115 24 -168 75 -219 269 -357 501 -357 147 0 271 51 375 155 93 93
155 241 155 370 0 67 -28 177 -62 245 -61 120 -188 223 -327 264 -82 24 -220
21 -301 -7z"/>
<path d="M2203 6406 c-106 -34 -196 -113 -246 -216 -30 -60 -32 -72 -32 -165
0 -97 2 -104 38 -177 149 -303 575 -297 720 10 29 61 32 76 32 162 -1 75 -5
107 -24 153 -32 80 -115 168 -198 209 -57 28 -78 33 -157 35 -57 2 -107 -2
-133 -11z"/>
<path d="M7563 6401 c-277 -103 -356 -440 -154 -654 59 -62 130 -100 220 -118
212 -41 425 115 461 338 27 166 -68 343 -225 418 -80 38 -221 46 -302 16z"/>
<path d="M2325 5043 c-532 -44 -994 -387 -1184 -878 -97 -251 -121 -534 -66
-795 61 -290 231 -577 453 -762 242 -203 495 -305 825 -333 l77 -7 0 1391 0
1391 -32 -2 c-18 -1 -51 -3 -73 -5z"/>
<path d="M7520 3660 l0 -1392 78 7 c522 44 938 319 1165 770 159 317 186 712
72 1052 -181 542 -650 901 -1237 948 l-78 6 0 -1391z"/>
</g>
</svg>
